<?xml version="1.0" encoding="UTF-8" standalone="no"?>
<!DOCTYPE svg PUBLIC "-//W3C//DTD SVG 1.1//EN" "http://www.w3.org/Graphics/SVG/1.1/DTD/svg11.dtd">
<svg width="100%" height="100%" viewBox="0 0 4000 4000" version="1.1" xmlns="http://www.w3.org/2000/svg" xmlns:xlink="http://www.w3.org/1999/xlink" xml:space="preserve" xmlns:serif="http://www.serif.com/" style="fill-rule:evenodd;clip-rule:evenodd;stroke-linejoin:round;stroke-miterlimit:2;">
    <g transform="matrix(1,0,0,1,-17,-22)">
        <path d="M2250.37,434L1890,795L1687,925.453L1523,1124L1211,1379.64L944,1977L555,2354L393,3058L709,2442L1164,2022L1368,1551L1659,1258L1789,997L1932.39,925.453L2250.37,434ZM3073,297L2672,849L2307,1120L2203,1399L1799,1773L1601,2246L1086,3033L755,3747L1186.2,3251L1449.18,2851L1855,2428L2067.28,1898.56L2369,1544L2512,1191L2772.41,925.453L3073,297ZM3749,997L3459.13,1319.94L3166,1475.72L2950,1728.94L2666,1913L2434,2441L2042,2890.94L1819,3546.94L2190.71,2936.39L2607.85,2578.38L2865.41,2059.94L3072.77,1862.12L3305.92,1568.08L3459.13,1475.72L3749,997Z"/>
        <g transform="matrix(4.16667,0,0,4.16667,1370.31,3398.56)">
            <path d="M0,-660.751C-47.001,-660.751 -83.294,-648.802 -108.878,-624.904C-134.463,-601.006 -147.255,-565.159 -147.255,-517.362C-147.255,-514.004 -147.023,-508.449 -146.56,-500.698L-144.824,-472.02C-144.592,-469.437 -144.477,-465.561 -144.477,-460.394C-144.477,-430.425 -152.117,-407.302 -167.398,-391.025C-182.679,-374.749 -206.412,-366.61 -238.595,-366.61C-246.467,-366.61 -252.081,-364.479 -255.439,-360.216C-258.796,-355.953 -260.474,-348.784 -260.474,-338.708C-260.474,-328.632 -258.796,-321.462 -255.439,-317.199C-252.081,-312.936 -246.467,-310.805 -238.595,-310.805C-212.334,-310.805 -191.628,-306.256 -176.427,-297.2L-147.315,-325.415C-155.396,-329.715 -164.39,-333.508 -174.344,-336.77L-174.344,-340.645C-144.94,-354.08 -123.812,-370.938 -110.962,-391.219C-98.112,-411.5 -92.266,-437.142 -93.423,-468.145L-94.465,-496.048L-94.813,-507.286C-94.813,-530.539 -91.745,-549.269 -85.609,-563.479C-79.474,-577.689 -69.46,-588.152 -55.568,-594.87C-41.676,-601.587 -23.153,-604.946 0,-604.946C7.872,-604.946 13.487,-607.077 16.844,-611.34C20.201,-615.603 21.88,-622.772 21.88,-632.848C21.88,-642.924 20.201,-650.094 16.844,-654.357C13.487,-658.62 7.872,-660.751 0,-660.751M0,-55.806C-2.303,-55.806 -4.551,-55.852 -6.767,-55.925L-28.213,-23.307L-29.093,-22.293L-44.801,-4.225C-31.12,-1.411 -16.189,0 0,0C7.872,0 13.487,-2.132 16.844,-6.395C20.201,-10.657 21.88,-17.827 21.88,-27.903C21.88,-37.979 20.201,-45.148 16.844,-49.411C13.487,-53.674 7.872,-55.806 0,-55.806M557.69,-360.216C554.332,-364.479 548.718,-366.61 540.846,-366.61C508.663,-366.61 484.93,-374.749 469.649,-391.025C466.363,-394.525 463.453,-398.361 460.874,-402.494L433.4,-367.845C444.956,-357.603 459.338,-348.53 476.595,-340.645L476.595,-336.77C447.422,-327.211 426.295,-313.195 413.213,-294.722C400.132,-276.25 393.591,-252.804 393.591,-224.384C393.591,-218.7 393.706,-214.437 393.938,-211.595L396.716,-164.703C396.948,-161.345 397.064,-156.436 397.064,-149.977C397.064,-117.166 389.481,-93.267 374.316,-78.283C359.15,-63.298 335.129,-55.806 302.251,-55.806C294.379,-55.806 288.764,-53.674 285.407,-49.411C282.05,-45.148 280.371,-37.979 280.371,-27.903C280.371,-17.827 282.05,-10.657 285.407,-6.395C288.764,-2.132 294.379,0 302.251,0C348.789,0 384.966,-11.626 410.782,-34.879C436.598,-58.131 449.506,-93.009 449.506,-139.514C449.506,-148.556 449.274,-155.403 448.811,-160.053L444.991,-207.72C444.528,-214.954 444.296,-220.121 444.296,-223.222C444.296,-252.416 452.053,-274.312 467.565,-288.909C483.078,-303.506 507.505,-310.805 540.846,-310.805C548.718,-310.805 554.332,-312.936 557.69,-317.199C561.047,-321.462 562.726,-328.632 562.726,-338.708C562.726,-348.784 561.047,-355.953 557.69,-360.216M-94.465,-164.703L-91.687,-211.595C-91.455,-214.437 -91.34,-218.7 -91.34,-224.384C-91.34,-237.543 -92.761,-249.622 -95.565,-260.649L-142.195,-217.606C-142.31,-214.906 -142.49,-211.624 -142.74,-207.72L-146.56,-160.053C-147.023,-155.403 -147.255,-148.556 -147.255,-139.514C-147.255,-95.69 -135.788,-62.195 -112.862,-39.021L-85.767,-97.468L-85.467,-97.926C-91.687,-111.628 -94.813,-128.965 -94.813,-149.977C-94.813,-156.436 -94.697,-161.345 -94.465,-164.703M298.025,-626.128L322.591,-659.945C316.048,-660.478 309.272,-660.751 302.251,-660.751C294.379,-660.751 288.764,-658.62 285.407,-654.357C282.05,-650.094 280.371,-642.924 280.371,-632.848C280.371,-625.31 281.311,-619.399 283.191,-615.114L298.025,-626.128ZM389.597,-558.635C395.269,-542.746 397.643,-521.884 396.716,-496.048L395.674,-468.145C395.454,-462.251 395.491,-456.554 395.777,-451.047L418.219,-477.357L448.368,-493.379L448.811,-500.698C449.274,-508.449 449.506,-514.004 449.506,-517.362C449.506,-565.159 436.714,-601.006 411.129,-624.904C402.86,-632.628 393.466,-639.096 382.96,-644.323L359.008,-594.248C359.363,-594.066 359.729,-593.893 360.076,-593.707C374.084,-586.215 383.924,-574.524 389.597,-558.635" style="fill-rule:nonzero;"/>
        </g>
    </g>
</svg>
